name analog
datacolumns 19
datarows 37
range 0.0 0.018000000000000002
endheader
time	ground_force_vx	ground_force_vy	ground_force_vz	ground_force_px	ground_force_py	ground_force_pz	l_ground_force_vx	l_ground_force_vy	l_ground_force_vz	l_ground_force_px	l_ground_force_py	l_ground_force_pz	ground_torque_x	ground_torque_y	ground_torque_z	l_ground_torque_x	l_ground_torque_y	l_ground_torque_z
0.0	-0.0	-0.0	-0.0	-1.1597366333007812	29.371828079223636	-485.24261474609375	0.6857135891914368	-26.44877052307129	-329.410400390625	-0.0	-0.0	-0.0	-0.0	-0.0	-0.0	101844.8125	-13105.53125	403.450927734375
0.0005	-0.0	-0.0	-0.0	-0.6244735717773438	29.47823715209961	-484.4680786132813	0.3379417657852173	-25.97357940673828	-330.29742431640625	-0.0	-0.0	-0.0	-0.0	-0.0	-0.0	102245.640625	-12885.51953125	414.5912780761719
0.001	-0.0	-0.0	-0.0	-0.939928650856018	29.44795227050781	-485.88092041015625	0.6209754943847656	-26.479570388793945	-329.50506591796875	-0.0	-0.0	-0.0	-0.0	-0.0	-0.0	102189.3203125	-13013.21875	381.65234375
0.0015	-0.0	-0.0	-0.0	-0.9335439801216124	29.40670585632324	-486.2342224121094	0.8871078491210938	-26.37415885925293	-331.6000671386719	-0.0	-0.0	-0.0	-0.0	-0.0	-0.0	102339.8828125	-12928.609375	454.8592224121094
0.002	-0.0	-0.0	-0.0	-0.7313464879989624	29.25860023498535	-485.71685791015625	0.6276174783706665	-26.826059341430664	-331.1833801269531	-0.0	-0.0	-0.0	-0.0	-0.0	-0.0	102659.1328125	-13066.2822265625	371.2938232421875
0.0025	-0.0	-0.0	-0.0	-0.356842041015625	29.49612808227539	-482.8673400878906	0.8460009694099426	-26.9316463470459	-331.6259460449219	-0.0	-0.0	-0.0	-0.0	-0.0	-0.0	102489.78125	-13027.2578125	482.1313781738281
0.003	-0.0	-0.0	-0.0	-0.0118130296468734	29.436790466308597	-484.02142333984375	1.1944140195846558	-26.79146957397461	-331.9496459960937	-0.0	-0.0	-0.0	-0.0	-0.0	-0.0	102939.5234375	-12717.1142578125	415.1611633300781
0.0035	-0.0	-0.0	-0.0	-0.4698029458522796	29.5617790222168	-483.0079345703125	0.8808594942092896	-27.09734344482422	-332.2300720214844	-0.0	-0.0	-0.0	-0.0	-0.0	-0.0	103088.65625	-13025.2978515625	606.6608276367188
0.004	-0.0	-0.0	-0.0	-0.2202035784721374	29.27651596069336	-484.2812194824219	0.8282040953636169	-27.42084503173828	-334.2073669433594	-0.0	-0.0	-0.0	-0.0	-0.0	-0.0	103301.421875	-12713.8359375	446.5109558105469
0.0045000000000000005	-0.0	-0.0	-0.0	-0.1128880456089973	29.45485115051269	-483.150146484375	1.212325096130371	-27.42684936523437	-332.9278259277344	-0.0	-0.0	-0.0	-0.0	-0.0	-0.0	103468.1875	-12863.458984375	387.44244384765625
0.005	-0.0	-0.0	-0.0	0.0236514247953891	29.1037712097168	-481.9246826171875	0.7983970642089844	-26.98518943786621	-334.7663879394531	-0.0	-0.0	-0.0	-0.0	-0.0	-0.0	103643.140625	-12812.22265625	547.4671020507812
0.0055	-0.0	-0.0	-0.0	0.0	29.09845352172852	-484.0434875488281	0.8398975729942322	-27.361906051635746	-333.9043273925781	-0.0	-0.0	-0.0	-0.0	-0.0	-0.0	103579.8125	-12755.765625	446.5013427734375
0.006	-0.0	-0.0	-0.0	-0.2019995748996734	29.27168846130371	-483.316650390625	0.6736781001091003	-27.6212215423584	-334.4164123535156	-0.0	-0.0	-0.0	-0.0	-0.0	-0.0	103660.578125	-12710.2568359375	533.4364624023438
0.006500000000000001	-0.0	-0.0	-0.0	0.0235558170825243	29.06151962280273	-482.0172119140625	0.7277581691741943	-27.46804428100586	-334.9506225585937	-0.0	-0.0	-0.0	-0.0	-0.0	-0.0	103916.5859375	-12804.35546875	394.9205322265625
0.007	-0.0	-0.0	-0.0	-0.5352630615234375	29.47866439819336	-480.343994140625	0.8635978102684021	-27.704296112060547	-335.5556640625	-0.0	-0.0	-0.0	-0.0	-0.0	-0.0	103639.0078125	-12765.8330078125	394.9328918457031
0.0075	-0.0	-0.0	-0.0	0.1407742202281952	29.53965187072754	-482.5180969238281	0.7749232053756714	-27.909652709960938	-336.83892822265625	-0.0	-0.0	-0.0	-0.0	-0.0	-0.0	104025.9453125	-12898.7724609375	496.01708984375
0.008	-0.0	-0.0	-0.0	-0.0703703686594963	29.145641326904297	-481.5137023925781	0.3364758193492889	-27.76958274841309	-336.74676513671875	-0.0	-0.0	-0.0	-0.0	-0.0	-0.0	103837.5546875	-12856.2216796875	370.97760009765625
0.0085	-0.0	-0.0	-0.0	-0.3334216773509979	29.122241973876957	-481.5697021484375	0.8168730735778809	-28.034765243530277	-335.8111572265625	-0.0	-0.0	-0.0	-0.0	-0.0	-0.0	104014.765625	-12900.11328125	391.4490661621094
0.009000000000000001	-0.0	-0.0	-0.0	-0.4884952306747436	29.493520736694336	-482.6118469238281	0.6257661581039429	-28.1931209564209	-335.7918701171875	-0.0	-0.0	-0.0	-0.0	-0.0	-0.0	103992.328125	-12665.8095703125	432.0300598144531
0.0095	-0.0	-0.0	-0.0	-0.2676315307617187	29.145641326904297	-482.8560485839844	0.5556141138076782	-27.997974395751957	-335.9023132324219	-0.0	-0.0	-0.0	-0.0	-0.0	-0.0	104030.2578125	-12828.8154296875	394.5318603515625
0.01	-0.0	-0.0	-0.0	-0.3142743110656738	29.45556259155273	-482.44378662109375	0.6676018834114075	-27.70979881286621	-337.9966735839844	-0.0	-0.0	-0.0	-0.0	-0.0	-0.0	104095.8359375	-12763.8701171875	380.58782958984375
0.0105	-0.0	-0.0	-0.0	-0.7602540254592896	29.467121124267575	-480.7700805664063	0.9714215397834778	-27.579540252685547	-335.6090087890625	-0.0	-0.0	-0.0	-0.0	-0.0	-0.0	104462.5390625	-12793.4208984375	388.5721130371094
0.011	-0.0	-0.0	-0.0	-0.6866385340690613	29.188310623168945	-481.6453857421875	0.9293317794799804	-27.97483253479004	-336.4159851074219	-0.0	-0.0	-0.0	-0.0	-0.0	-0.0	104178.7578125	-12792.6376953125	355.8706970214844
0.0115	-0.0	-0.0	-0.0	-0.6867825388908386	29.696273803710938	-481.8439636230469	0.5364130735397339	-27.46391487121582	-337.46319580078125	-0.0	-0.0	-0.0	-0.0	-0.0	-0.0	104188.8828125	-12823.86328125	444.7419128417969
0.012	-0.0	-0.0	-0.0	-0.4460525512695312	28.85861587524414	-480.9672546386719	0.5322647094726562	-27.22615623474121	-336.4909362792969	-0.0	-0.0	-0.0	-0.0	-0.0	-0.0	104237.921875	-12670.4150390625	393.25830078125
0.0125	-0.0	-0.0	-0.0	-0.4923516511917114	29.05651092529297	-480.79638671875	0.709686279296875	-27.491085052490234	-337.20458984375	-0.0	-0.0	-0.0	-0.0	-0.0	-0.0	104399.4140625	-12604.7099609375	372.7062072753906
0.013000000000000001	-0.0	-0.0	-0.0	-0.2279513031244278	29.145641326904297	-482.2607116699219	0.7752806544303894	-27.68697929382324	-338.5860900878906	-0.0	-0.0	-0.0	-0.0	-0.0	-0.0	104543.28125	-12653.8603515625	401.0855407714844
0.0135	-0.0	-0.0	-0.0	-0.5520748496055603	29.472827911376957	-481.371826171875	1.1496303081512451	-27.268421173095703	-337.6438293457031	-0.0	-0.0	-0.0	-0.0	-0.0	-0.0	104668.7109375	-12506.6787109375	401.47021484375
0.014	-0.0	-0.0	-0.0	-0.356842041015625	29.18871116638184	-481.3724060058594	0.9988625645637512	-27.42215919494629	-337.9017333984375	-0.0	-0.0	-0.0	-0.0	-0.0	-0.0	104596.8046875	-12803.3974609375	454.11712646484375
0.0145	-0.0	-0.0	-0.0	-0.8460490703582764	29.25777816772461	-480.3362121582031	0.9331437945365906	-27.36349868774414	-338.2373352050781	-0.0	-0.0	-0.0	-0.0	-0.0	-0.0	104691.515625	-12675.47265625	534.2391357421875
0.015	-0.0	-0.0	-0.0	-0.3163704872131347	28.94991683959961	-480.0843811035156	1.0907273292541504	-26.941316604614254	-339.1944580078125	-0.0	-0.0	-0.0	-0.0	-0.0	-0.0	104830.2734375	-12636.3515625	528.9608154296875
0.0155	-0.0	-0.0	-0.0	-0.425707459449768	29.4562931060791	-477.579833984375	1.7680730819702148	-27.461929321289062	-339.5559997558594	-0.0	-0.0	-0.0	-0.0	-0.0	-0.0	104912.9609375	-12687.0947265625	490.8980407714844
0.016	-0.0	-0.0	-0.0	-0.6448966860771179	29.565881729125977	-479.4566345214844	1.0445880889892578	-27.314224243164062	-338.67706298828125	-0.0	-0.0	-0.0	-0.0	-0.0	-0.0	104852.96875	-12625.9970703125	455.0933837890625
0.0165	-0.0	-0.0	-0.0	-0.4049876928329468	29.013124465942383	-478.6587829589844	1.5080833435058594	-27.049222946166992	-339.0262451171875	-0.0	-0.0	-0.0	-0.0	-0.0	-0.0	105055.78125	-12802.9033203125	596.0846557617188
0.017	-0.0	-0.0	-0.0	-0.8257508277893066	29.25760841369629	-477.6802368164063	1.5107753276824951	-27.314151763916016	-339.36480712890625	-0.0	-0.0	-0.0	-0.0	-0.0	-0.0	104802.484375	-12815.88671875	654.3865966796875
0.0175	-0.0	-0.0	-0.0	-0.7800642848014832	29.392332077026367	-477.3101806640625	1.7109185457229614	-27.334272384643555	-339.3753662109375	-0.0	-0.0	-0.0	-0.0	-0.0	-0.0	105016.7890625	-12879.705078125	601.0882568359375
0.018000000000000002	-0.0	-0.0	-0.0	-1.2925699949264526	29.36944961547852	-475.7255859375	1.642371416091919	-27.35703468322754	-341.0218200683594	-0.0	-0.0	-0.0	-0.0	-0.0	-0.0	104858.9140625	-12926.2578125	690.9157104492188
